<svg xmlns="http://www.w3.org/2000/svg" xmlns:svgjs="http://svgjs.com/svgjs" xmlns:xlink="http://www.w3.org/1999/xlink" width="288" height="288"><svg xmlns="http://www.w3.org/2000/svg" width="288" height="288" enable-background="new 0 0 31.869 31.869" viewBox="0 0 31.869 31.869"><path fill="#fff" d="M0 31.741h7.942V20.543c0-1.506-1.221-2.728-2.728-2.728H2.727C1.221 17.816 0 19.038 0 20.543V31.741zM11.966 31.741h7.942V12.085c0-1.506-1.221-2.728-2.727-2.728h-2.49c-1.507 0-2.728 1.221-2.728 2.728L11.966 31.741 11.966 31.741zM26.656.127c-1.506 0-2.729 1.221-2.729 2.728v28.887h7.942V2.854c0-1.506-1.223-2.728-2.729-2.728L26.656.127 26.656.127z" class="color000 svgShape"/></svg></svg>